<?xml version="1.0" encoding="utf-8"?>
<!-- Generator: Adobe Illustrator 19.0.0, SVG Export Plug-In . SVG Version: 6.00 Build 0)  -->
<svg version="1.1"
	 id="svg8" sodipodi:docname="beds.svg" inkscape:version="1.0 (1.0+r73+1)" xmlns:inkscape="http://www.inkscape.org/namespaces/inkscape" xmlns:sodipodi="http://sodipodi.sourceforge.net/DTD/sodipodi-0.dtd" xmlns:svg="http://www.w3.org/2000/svg" xmlns:rdf="http://www.w3.org/1999/02/22-rdf-syntax-ns#" xmlns:cc="http://creativecommons.org/ns#" xmlns:dc="http://purl.org/dc/elements/1.1/"
	 xmlns="http://www.w3.org/2000/svg" xmlns:xlink="http://www.w3.org/1999/xlink" x="0px" y="0px" viewBox="102 20.9 800 800"
	 style="enable-background:new 102 20.9 800 800;" xml:space="preserve">
<sodipodi:namedview  id="base" units="px" inkscape:window-y="30" inkscape:window-x="0" inkscape:window-height="1013" inkscape:window-width="1920" inkscape:guide-bbox="true" inkscape:pageopacity="0.0" inkscape:pageshadow="2" inkscape:document-units="px" inkscape:current-layer="layer1" inkscape:window-maximized="1" inkscape:document-rotation="0" borderopacity="1.0" inkscape:zoom="0.75306872" inkscape:cx="422.88197" inkscape:cy="438.99653" showguides="true" pagecolor="#ffffff" showgrid="false" bordercolor="#666666">
	<sodipodi:guide  id="guide10" position="0,211.66666" orientation="0,800"></sodipodi:guide>
	<sodipodi:guide  id="guide12" position="211.66666,211.66666" orientation="800,0"></sodipodi:guide>
	<sodipodi:guide  id="guide14" position="211.66666,0" orientation="0,-800"></sodipodi:guide>
	<sodipodi:guide  id="guide16" position="0,0" orientation="-800,0"></sodipodi:guide>
	<sodipodi:guide  id="guide65" position="12.913271,259.30402" orientation="1,0"></sodipodi:guide>
	<sodipodi:guide  id="guide67" position="198.42693,260.17963" orientation="1,0"></sodipodi:guide>
	<sodipodi:guide  id="guide69" position="-240.51312,198.52088" orientation="0,-1"></sodipodi:guide>
	<sodipodi:guide  id="guide71" position="-205.82869,13.316532" orientation="0,-1"></sodipodi:guide>
	<inkscape:grid  type="xygrid" id="grid77"></inkscape:grid>
</sodipodi:namedview>
<path d="M678,285h-48.2c-2.3-27-12.8-51.7-29.1-71.6l34.1-34.1c4.8-4.8,4.8-12.6,0-17.4c-4.8-4.8-12.6-4.8-17.4,0l-34,34
	c-19.7-16.5-44.3-27.3-71.3-29.8v-48.3c0-6.8-5.5-12.3-12.3-12.3s-12.3,5.5-12.3,12.3v48.3c-26.8,2.5-51.3,13.2-71,29.5L381.9,161
	c-4.8-4.8-12.6-4.8-17.4,0s-4.8,12.6,0,17.4l34.7,34.7c-16.1,19.6-26.7,43.9-29.2,70.6h-49.6c-6.8,0-12.3,5.5-12.3,12.3
	s5.5,12.3,12.3,12.3H370c2.5,26.5,13,50.7,29,70.3l-35.5,35.3c-4.8,4.8-4.8,12.6,0,17.4c2.4,2.4,5.6,3.6,8.7,3.6
	c3.2,0,6.3-1.2,8.7-3.6l35.3-35.3c19.4,16.2,43.5,26.9,70,29.7v49.7c0,6.8,5.5,12.3,12.3,12.3s12.3-5.5,12.3-12.3v-49.5
	c26.7-2.2,51.1-12.6,70.8-28.5l34.8,34.8c2.4,2.4,5.6,3.6,8.7,3.6s6.3-1.2,8.7-3.6c4.8-4.8,4.8-12.6,0-17.4l-34.6-34.6
	c16.5-19.5,27.5-43.9,30.3-70.7h48.4c6.8,0,12.3-5.5,12.3-12.3C690.3,290.5,684.8,285,678,285z M499.8,190.2
	c28.6,0,54.6,11.4,73.7,30c0.4,0.6,0.9,1.2,1.4,1.7s1,0.9,1.6,1.3c18.1,19,29.1,44.7,29.1,72.9c0,58.4-47.5,105.8-105.8,105.8
	c-58.4,0-105.8-47.5-105.8-105.8S441.4,190.2,499.8,190.2z"/>
<path d="M189.9,759.7c2.3,3.3,6.1,5.3,10.1,5.3h299.7h299.7c4,0,7.8-2,10.1-5.3s2.8-7.6,1.4-11.4l-89.5-235.4
	c-1.8-4.8-6.4-7.9-11.5-7.9H499.8H289.5c-5.1,0-9.7,3.2-11.5,7.9l-89.5,235.4C187.1,752.1,187.6,756.3,189.9,759.7z M512,740.4V684
	h248.1l21.4,56.4H512z M512,604.3h217.8l20.9,55.1H512V604.3z M487.5,659.4H248.6l20.9-55.1h217.8v55.1H487.5z M720.5,579.7H512
	v-50.1h189.4L720.5,579.7z M298,529.6h189.4v50.1H279L298,529.6z M239.4,684h248.1v56.4H217.9L239.4,684z"/>
</svg>
